<svg width="576" height="455" viewBox="0 0 576 455" fill="none" xmlns="http://www.w3.org/2000/svg">
<rect width="576" height="455" rx="27" fill="#F4F2F3"/>
<rect x="369" y="80" width="74" height="270" rx="10" fill="url(#paint0_linear_56_55)"/>
<rect x="240" y="168" width="74" height="182" rx="10" fill="url(#paint1_linear_56_55)"/>
<rect x="110" y="240" width="74" height="110" rx="10" fill="url(#paint2_linear_56_55)"/>
<path d="M363.494 56.68V55.601H365.938V65H364.742V56.68H363.494ZM367.97 60.203C367.97 58.7123 368.213 57.551 368.698 56.719C369.183 55.8783 370.033 55.458 371.246 55.458C372.451 55.458 373.296 55.8783 373.781 56.719C374.266 57.551 374.509 58.7123 374.509 60.203C374.509 61.7197 374.266 62.8983 373.781 63.739C373.296 64.5797 372.451 65 371.246 65C370.033 65 369.183 64.5797 368.698 63.739C368.213 62.8983 367.97 61.7197 367.97 60.203ZM373.339 60.203C373.339 59.449 373.287 58.812 373.183 58.292C373.088 57.7633 372.884 57.3387 372.572 57.018C372.269 56.6973 371.827 56.537 371.246 56.537C370.657 56.537 370.206 56.6973 369.894 57.018C369.591 57.3387 369.387 57.7633 369.283 58.292C369.188 58.812 369.14 59.449 369.14 60.203C369.14 60.983 369.188 61.6373 369.283 62.166C369.387 62.6947 369.591 63.1193 369.894 63.44C370.206 63.7607 370.657 63.921 371.246 63.921C371.827 63.921 372.269 63.7607 372.572 63.44C372.884 63.1193 373.088 62.6947 373.183 62.166C373.287 61.6373 373.339 60.983 373.339 60.203ZM376.133 60.203C376.133 58.7123 376.376 57.551 376.861 56.719C377.346 55.8783 378.196 55.458 379.409 55.458C380.614 55.458 381.459 55.8783 381.944 56.719C382.429 57.551 382.672 58.7123 382.672 60.203C382.672 61.7197 382.429 62.8983 381.944 63.739C381.459 64.5797 380.614 65 379.409 65C378.196 65 377.346 64.5797 376.861 63.739C376.376 62.8983 376.133 61.7197 376.133 60.203ZM381.502 60.203C381.502 59.449 381.45 58.812 381.346 58.292C381.251 57.7633 381.047 57.3387 380.735 57.018C380.432 56.6973 379.99 56.537 379.409 56.537C378.82 56.537 378.369 56.6973 378.057 57.018C377.754 57.3387 377.55 57.7633 377.446 58.292C377.351 58.812 377.303 59.449 377.303 60.203C377.303 60.983 377.351 61.6373 377.446 62.166C377.55 62.6947 377.754 63.1193 378.057 63.44C378.369 63.7607 378.82 63.921 379.409 63.921C379.99 63.921 380.432 63.7607 380.735 63.44C381.047 63.1193 381.251 62.6947 381.346 62.166C381.45 61.6373 381.502 60.983 381.502 60.203ZM384.296 60.203C384.296 58.7123 384.539 57.551 385.024 56.719C385.51 55.8783 386.359 55.458 387.572 55.458C388.777 55.458 389.622 55.8783 390.107 56.719C390.593 57.551 390.835 58.7123 390.835 60.203C390.835 61.7197 390.593 62.8983 390.107 63.739C389.622 64.5797 388.777 65 387.572 65C386.359 65 385.51 64.5797 385.024 63.739C384.539 62.8983 384.296 61.7197 384.296 60.203ZM389.665 60.203C389.665 59.449 389.613 58.812 389.509 58.292C389.414 57.7633 389.21 57.3387 388.898 57.018C388.595 56.6973 388.153 56.537 387.572 56.537C386.983 56.537 386.532 56.6973 386.22 57.018C385.917 57.3387 385.713 57.7633 385.609 58.292C385.514 58.812 385.466 59.449 385.466 60.203C385.466 60.983 385.514 61.6373 385.609 62.166C385.713 62.6947 385.917 63.1193 386.22 63.44C386.532 63.7607 386.983 63.921 387.572 63.921C388.153 63.921 388.595 63.7607 388.898 63.44C389.21 63.1193 389.414 62.6947 389.509 62.166C389.613 61.6373 389.665 60.983 389.665 60.203ZM392.459 60.203C392.459 58.7123 392.702 57.551 393.187 56.719C393.673 55.8783 394.522 55.458 395.735 55.458C396.94 55.458 397.785 55.8783 398.27 56.719C398.756 57.551 398.998 58.7123 398.998 60.203C398.998 61.7197 398.756 62.8983 398.27 63.739C397.785 64.5797 396.94 65 395.735 65C394.522 65 393.673 64.5797 393.187 63.739C392.702 62.8983 392.459 61.7197 392.459 60.203ZM397.828 60.203C397.828 59.449 397.776 58.812 397.672 58.292C397.577 57.7633 397.373 57.3387 397.061 57.018C396.758 56.6973 396.316 56.537 395.735 56.537C395.146 56.537 394.695 56.6973 394.383 57.018C394.08 57.3387 393.876 57.7633 393.772 58.292C393.677 58.812 393.629 59.449 393.629 60.203C393.629 60.983 393.677 61.6373 393.772 62.166C393.876 62.6947 394.08 63.1193 394.383 63.44C394.695 63.7607 395.146 63.921 395.735 63.921C396.316 63.921 396.758 63.7607 397.061 63.44C397.373 63.1193 397.577 62.6947 397.672 62.166C397.776 61.6373 397.828 60.983 397.828 60.203ZM406.805 65.117C406.259 65.117 405.77 65.026 405.336 64.844C404.903 64.6533 404.561 64.3933 404.309 64.064C404.058 63.726 403.919 63.3403 403.893 62.907H405.115C405.15 63.2623 405.315 63.5527 405.609 63.778C405.913 64.0033 406.307 64.116 406.792 64.116C407.243 64.116 407.598 64.0163 407.858 63.817C408.118 63.6177 408.248 63.3663 408.248 63.063C408.248 62.751 408.11 62.5213 407.832 62.374C407.555 62.218 407.126 62.0663 406.545 61.919C406.017 61.7803 405.583 61.6417 405.245 61.503C404.916 61.3557 404.63 61.1433 404.387 60.866C404.153 60.58 404.036 60.2073 404.036 59.748C404.036 59.384 404.145 59.0503 404.361 58.747C404.578 58.4437 404.886 58.2053 405.284 58.032C405.683 57.85 406.138 57.759 406.649 57.759C407.438 57.759 408.075 57.9583 408.56 58.357C409.046 58.7557 409.306 59.3017 409.34 59.995H408.157C408.131 59.6223 407.98 59.3233 407.702 59.098C407.434 58.8727 407.07 58.76 406.61 58.76C406.186 58.76 405.848 58.851 405.596 59.033C405.345 59.215 405.219 59.4533 405.219 59.748C405.219 59.982 405.293 60.177 405.44 60.333C405.596 60.4803 405.787 60.6017 406.012 60.697C406.246 60.7837 406.567 60.8833 406.974 60.996C407.486 61.1347 407.902 61.2733 408.222 61.412C408.543 61.542 408.816 61.7413 409.041 62.01C409.275 62.2787 409.397 62.6297 409.405 63.063C409.405 63.453 409.297 63.804 409.08 64.116C408.864 64.428 408.556 64.675 408.157 64.857C407.767 65.0303 407.317 65.117 406.805 65.117ZM417.393 57.876V65H416.21V63.947C415.985 64.311 415.669 64.597 415.261 64.805C414.863 65.0043 414.421 65.104 413.935 65.104C413.381 65.104 412.882 64.9913 412.44 64.766C411.998 64.532 411.647 64.1853 411.387 63.726C411.136 63.2667 411.01 62.7077 411.01 62.049V57.876H412.18V61.893C412.18 62.595 412.358 63.1367 412.713 63.518C413.069 63.8907 413.554 64.077 414.169 64.077C414.802 64.077 415.3 63.882 415.664 63.492C416.028 63.102 416.21 62.5343 416.21 61.789V57.876H417.393ZM420.574 59.189C420.808 58.7817 421.154 58.4437 421.614 58.175C422.082 57.8977 422.623 57.759 423.239 57.759C423.871 57.759 424.443 57.9107 424.955 58.214C425.475 58.5173 425.882 58.9463 426.177 59.501C426.471 60.047 426.619 60.684 426.619 61.412C426.619 62.1313 426.471 62.7727 426.177 63.336C425.882 63.8993 425.475 64.337 424.955 64.649C424.443 64.961 423.871 65.117 423.239 65.117C422.632 65.117 422.095 64.9827 421.627 64.714C421.167 64.4367 420.816 64.0943 420.574 63.687V68.38H419.391V57.876H420.574V59.189ZM425.41 61.412C425.41 60.8747 425.301 60.4067 425.085 60.008C424.868 59.6093 424.573 59.306 424.201 59.098C423.837 58.89 423.434 58.786 422.992 58.786C422.558 58.786 422.155 58.8943 421.783 59.111C421.419 59.319 421.124 59.6267 420.899 60.034C420.682 60.4327 420.574 60.8963 420.574 61.425C420.574 61.9623 420.682 62.4347 420.899 62.842C421.124 63.2407 421.419 63.5483 421.783 63.765C422.155 63.973 422.558 64.077 422.992 64.077C423.434 64.077 423.837 63.973 424.201 63.765C424.573 63.5483 424.868 63.2407 425.085 62.842C425.301 62.4347 425.41 61.958 425.41 61.412ZM429.359 59.189C429.593 58.7817 429.939 58.4437 430.399 58.175C430.867 57.8977 431.408 57.759 432.024 57.759C432.656 57.759 433.228 57.9107 433.74 58.214C434.26 58.5173 434.667 58.9463 434.962 59.501C435.256 60.047 435.404 60.684 435.404 61.412C435.404 62.1313 435.256 62.7727 434.962 63.336C434.667 63.8993 434.26 64.337 433.74 64.649C433.228 64.961 432.656 65.117 432.024 65.117C431.417 65.117 430.88 64.9827 430.412 64.714C429.952 64.4367 429.601 64.0943 429.359 63.687V68.38H428.176V57.876H429.359V59.189ZM434.195 61.412C434.195 60.8747 434.086 60.4067 433.87 60.008C433.653 59.6093 433.358 59.306 432.986 59.098C432.622 58.89 432.219 58.786 431.777 58.786C431.343 58.786 430.94 58.8943 430.568 59.111C430.204 59.319 429.909 59.6267 429.684 60.034C429.467 60.4327 429.359 60.8963 429.359 61.425C429.359 61.9623 429.467 62.4347 429.684 62.842C429.909 63.2407 430.204 63.5483 430.568 63.765C430.94 63.973 431.343 64.077 431.777 64.077C432.219 64.077 432.622 63.973 432.986 63.765C433.358 63.5483 433.653 63.2407 433.87 62.842C434.086 62.4347 434.195 61.958 434.195 61.412ZM438.144 55.38V65H436.961V55.38H438.144ZM446.296 57.876L442.006 68.354H440.784L442.188 64.922L439.315 57.876H440.628L442.864 63.648L445.074 57.876H446.296Z" fill="#0A0A0A"/>
<path d="M243.799 146.628H239.236V149.592C239.435 149.315 239.73 149.089 240.12 148.916C240.51 148.734 240.93 148.643 241.381 148.643C242.1 148.643 242.685 148.795 243.136 149.098C243.587 149.393 243.907 149.778 244.098 150.255C244.297 150.723 244.397 151.221 244.397 151.75C244.397 152.374 244.28 152.933 244.046 153.427C243.812 153.921 243.452 154.311 242.967 154.597C242.49 154.883 241.897 155.026 241.186 155.026C240.276 155.026 239.539 154.792 238.976 154.324C238.413 153.856 238.07 153.232 237.949 152.452H239.106C239.219 152.946 239.457 153.332 239.821 153.609C240.185 153.886 240.644 154.025 241.199 154.025C241.884 154.025 242.399 153.821 242.746 153.414C243.093 152.998 243.266 152.452 243.266 151.776C243.266 151.1 243.093 150.58 242.746 150.216C242.399 149.843 241.888 149.657 241.212 149.657C240.753 149.657 240.35 149.77 240.003 149.995C239.665 150.212 239.418 150.511 239.262 150.892H238.144V145.588H243.799V146.628ZM245.969 150.203C245.969 148.712 246.212 147.551 246.697 146.719C247.182 145.878 248.032 145.458 249.245 145.458C250.45 145.458 251.295 145.878 251.78 146.719C252.265 147.551 252.508 148.712 252.508 150.203C252.508 151.72 252.265 152.898 251.78 153.739C251.295 154.58 250.45 155 249.245 155C248.032 155 247.182 154.58 246.697 153.739C246.212 152.898 245.969 151.72 245.969 150.203ZM251.338 150.203C251.338 149.449 251.286 148.812 251.182 148.292C251.087 147.763 250.883 147.339 250.571 147.018C250.268 146.697 249.826 146.537 249.245 146.537C248.656 146.537 248.205 146.697 247.893 147.018C247.59 147.339 247.386 147.763 247.282 148.292C247.187 148.812 247.139 149.449 247.139 150.203C247.139 150.983 247.187 151.637 247.282 152.166C247.386 152.695 247.59 153.119 247.893 153.44C248.205 153.761 248.656 153.921 249.245 153.921C249.826 153.921 250.268 153.761 250.571 153.44C250.883 153.119 251.087 152.695 251.182 152.166C251.286 151.637 251.338 150.983 251.338 150.203ZM254.132 150.203C254.132 148.712 254.375 147.551 254.86 146.719C255.346 145.878 256.195 145.458 257.408 145.458C258.613 145.458 259.458 145.878 259.943 146.719C260.429 147.551 260.671 148.712 260.671 150.203C260.671 151.72 260.429 152.898 259.943 153.739C259.458 154.58 258.613 155 257.408 155C256.195 155 255.346 154.58 254.86 153.739C254.375 152.898 254.132 151.72 254.132 150.203ZM259.501 150.203C259.501 149.449 259.449 148.812 259.345 148.292C259.25 147.763 259.046 147.339 258.734 147.018C258.431 146.697 257.989 146.537 257.408 146.537C256.819 146.537 256.368 146.697 256.056 147.018C255.753 147.339 255.549 147.763 255.445 148.292C255.35 148.812 255.302 149.449 255.302 150.203C255.302 150.983 255.35 151.637 255.445 152.166C255.549 152.695 255.753 153.119 256.056 153.44C256.368 153.761 256.819 153.921 257.408 153.921C257.989 153.921 258.431 153.761 258.734 153.44C259.046 153.119 259.25 152.695 259.345 152.166C259.449 151.637 259.501 150.983 259.501 150.203ZM262.295 150.203C262.295 148.712 262.538 147.551 263.023 146.719C263.509 145.878 264.358 145.458 265.571 145.458C266.776 145.458 267.621 145.878 268.106 146.719C268.592 147.551 268.834 148.712 268.834 150.203C268.834 151.72 268.592 152.898 268.106 153.739C267.621 154.58 266.776 155 265.571 155C264.358 155 263.509 154.58 263.023 153.739C262.538 152.898 262.295 151.72 262.295 150.203ZM267.664 150.203C267.664 149.449 267.612 148.812 267.508 148.292C267.413 147.763 267.209 147.339 266.897 147.018C266.594 146.697 266.152 146.537 265.571 146.537C264.982 146.537 264.531 146.697 264.219 147.018C263.916 147.339 263.712 147.763 263.608 148.292C263.513 148.812 263.465 149.449 263.465 150.203C263.465 150.983 263.513 151.637 263.608 152.166C263.712 152.695 263.916 153.119 264.219 153.44C264.531 153.761 264.982 153.921 265.571 153.921C266.152 153.921 266.594 153.761 266.897 153.44C267.209 153.119 267.413 152.695 267.508 152.166C267.612 151.637 267.664 150.983 267.664 150.203ZM276.641 155.117C276.095 155.117 275.605 155.026 275.172 154.844C274.739 154.653 274.396 154.393 274.145 154.064C273.894 153.726 273.755 153.34 273.729 152.907H274.951C274.986 153.262 275.15 153.553 275.445 153.778C275.748 154.003 276.143 154.116 276.628 154.116C277.079 154.116 277.434 154.016 277.694 153.817C277.954 153.618 278.084 153.366 278.084 153.063C278.084 152.751 277.945 152.521 277.668 152.374C277.391 152.218 276.962 152.066 276.381 151.919C275.852 151.78 275.419 151.642 275.081 151.503C274.752 151.356 274.466 151.143 274.223 150.866C273.989 150.58 273.872 150.207 273.872 149.748C273.872 149.384 273.98 149.05 274.197 148.747C274.414 148.444 274.721 148.205 275.12 148.032C275.519 147.85 275.974 147.759 276.485 147.759C277.274 147.759 277.911 147.958 278.396 148.357C278.881 148.756 279.141 149.302 279.176 149.995H277.993C277.967 149.622 277.815 149.323 277.538 149.098C277.269 148.873 276.905 148.76 276.446 148.76C276.021 148.76 275.683 148.851 275.432 149.033C275.181 149.215 275.055 149.453 275.055 149.748C275.055 149.982 275.129 150.177 275.276 150.333C275.432 150.48 275.623 150.602 275.848 150.697C276.082 150.784 276.403 150.883 276.81 150.996C277.321 151.135 277.737 151.273 278.058 151.412C278.379 151.542 278.652 151.741 278.877 152.01C279.111 152.279 279.232 152.63 279.241 153.063C279.241 153.453 279.133 153.804 278.916 154.116C278.699 154.428 278.392 154.675 277.993 154.857C277.603 155.03 277.152 155.117 276.641 155.117ZM287.229 147.876V155H286.046V153.947C285.821 154.311 285.504 154.597 285.097 154.805C284.698 155.004 284.256 155.104 283.771 155.104C283.216 155.104 282.718 154.991 282.276 154.766C281.834 154.532 281.483 154.185 281.223 153.726C280.972 153.267 280.846 152.708 280.846 152.049V147.876H282.016V151.893C282.016 152.595 282.194 153.137 282.549 153.518C282.904 153.891 283.39 154.077 284.005 154.077C284.638 154.077 285.136 153.882 285.5 153.492C285.864 153.102 286.046 152.534 286.046 151.789V147.876H287.229ZM290.41 149.189C290.644 148.782 290.99 148.444 291.45 148.175C291.918 147.898 292.459 147.759 293.075 147.759C293.707 147.759 294.279 147.911 294.791 148.214C295.311 148.517 295.718 148.946 296.013 149.501C296.307 150.047 296.455 150.684 296.455 151.412C296.455 152.131 296.307 152.773 296.013 153.336C295.718 153.899 295.311 154.337 294.791 154.649C294.279 154.961 293.707 155.117 293.075 155.117C292.468 155.117 291.931 154.983 291.463 154.714C291.003 154.437 290.652 154.094 290.41 153.687V158.38H289.227V147.876H290.41V149.189ZM295.246 151.412C295.246 150.875 295.137 150.407 294.921 150.008C294.704 149.609 294.409 149.306 294.037 149.098C293.673 148.89 293.27 148.786 292.828 148.786C292.394 148.786 291.991 148.894 291.619 149.111C291.255 149.319 290.96 149.627 290.735 150.034C290.518 150.433 290.41 150.896 290.41 151.425C290.41 151.962 290.518 152.435 290.735 152.842C290.96 153.241 291.255 153.548 291.619 153.765C291.991 153.973 292.394 154.077 292.828 154.077C293.27 154.077 293.673 153.973 294.037 153.765C294.409 153.548 294.704 153.241 294.921 152.842C295.137 152.435 295.246 151.958 295.246 151.412ZM299.195 149.189C299.429 148.782 299.775 148.444 300.235 148.175C300.703 147.898 301.244 147.759 301.86 147.759C302.492 147.759 303.064 147.911 303.576 148.214C304.096 148.517 304.503 148.946 304.798 149.501C305.092 150.047 305.24 150.684 305.24 151.412C305.24 152.131 305.092 152.773 304.798 153.336C304.503 153.899 304.096 154.337 303.576 154.649C303.064 154.961 302.492 155.117 301.86 155.117C301.253 155.117 300.716 154.983 300.248 154.714C299.788 154.437 299.437 154.094 299.195 153.687V158.38H298.012V147.876H299.195V149.189ZM304.031 151.412C304.031 150.875 303.922 150.407 303.706 150.008C303.489 149.609 303.194 149.306 302.822 149.098C302.458 148.89 302.055 148.786 301.613 148.786C301.179 148.786 300.776 148.894 300.404 149.111C300.04 149.319 299.745 149.627 299.52 150.034C299.303 150.433 299.195 150.896 299.195 151.425C299.195 151.962 299.303 152.435 299.52 152.842C299.745 153.241 300.04 153.548 300.404 153.765C300.776 153.973 301.179 154.077 301.613 154.077C302.055 154.077 302.458 153.973 302.822 153.765C303.194 153.548 303.489 153.241 303.706 152.842C303.922 152.435 304.031 151.958 304.031 151.412ZM307.98 145.38V155H306.797V145.38H307.98ZM316.132 147.876L311.842 158.354H310.62L312.024 154.922L309.151 147.876H310.464L312.7 153.648L314.91 147.876H316.132Z" fill="#0A0A0A"/>
<path d="M109.494 216.68V215.601H111.938V225H110.742V216.68H109.494ZM113.97 220.203C113.97 218.712 114.213 217.551 114.698 216.719C115.183 215.878 116.033 215.458 117.246 215.458C118.451 215.458 119.296 215.878 119.781 216.719C120.266 217.551 120.509 218.712 120.509 220.203C120.509 221.72 120.266 222.898 119.781 223.739C119.296 224.58 118.451 225 117.246 225C116.033 225 115.183 224.58 114.698 223.739C114.213 222.898 113.97 221.72 113.97 220.203ZM119.339 220.203C119.339 219.449 119.287 218.812 119.183 218.292C119.088 217.763 118.884 217.339 118.572 217.018C118.269 216.697 117.827 216.537 117.246 216.537C116.657 216.537 116.206 216.697 115.894 217.018C115.591 217.339 115.387 217.763 115.283 218.292C115.188 218.812 115.14 219.449 115.14 220.203C115.14 220.983 115.188 221.637 115.283 222.166C115.387 222.695 115.591 223.119 115.894 223.44C116.206 223.761 116.657 223.921 117.246 223.921C117.827 223.921 118.269 223.761 118.572 223.44C118.884 223.119 119.088 222.695 119.183 222.166C119.287 221.637 119.339 220.983 119.339 220.203ZM122.133 220.203C122.133 218.712 122.376 217.551 122.861 216.719C123.346 215.878 124.196 215.458 125.409 215.458C126.614 215.458 127.459 215.878 127.944 216.719C128.429 217.551 128.672 218.712 128.672 220.203C128.672 221.72 128.429 222.898 127.944 223.739C127.459 224.58 126.614 225 125.409 225C124.196 225 123.346 224.58 122.861 223.739C122.376 222.898 122.133 221.72 122.133 220.203ZM127.502 220.203C127.502 219.449 127.45 218.812 127.346 218.292C127.251 217.763 127.047 217.339 126.735 217.018C126.432 216.697 125.99 216.537 125.409 216.537C124.82 216.537 124.369 216.697 124.057 217.018C123.754 217.339 123.55 217.763 123.446 218.292C123.351 218.812 123.303 219.449 123.303 220.203C123.303 220.983 123.351 221.637 123.446 222.166C123.55 222.695 123.754 223.119 124.057 223.44C124.369 223.761 124.82 223.921 125.409 223.921C125.99 223.921 126.432 223.761 126.735 223.44C127.047 223.119 127.251 222.695 127.346 222.166C127.45 221.637 127.502 220.983 127.502 220.203ZM130.296 220.203C130.296 218.712 130.539 217.551 131.024 216.719C131.51 215.878 132.359 215.458 133.572 215.458C134.777 215.458 135.622 215.878 136.107 216.719C136.593 217.551 136.835 218.712 136.835 220.203C136.835 221.72 136.593 222.898 136.107 223.739C135.622 224.58 134.777 225 133.572 225C132.359 225 131.51 224.58 131.024 223.739C130.539 222.898 130.296 221.72 130.296 220.203ZM135.665 220.203C135.665 219.449 135.613 218.812 135.509 218.292C135.414 217.763 135.21 217.339 134.898 217.018C134.595 216.697 134.153 216.537 133.572 216.537C132.983 216.537 132.532 216.697 132.22 217.018C131.917 217.339 131.713 217.763 131.609 218.292C131.514 218.812 131.466 219.449 131.466 220.203C131.466 220.983 131.514 221.637 131.609 222.166C131.713 222.695 131.917 223.119 132.22 223.44C132.532 223.761 132.983 223.921 133.572 223.921C134.153 223.921 134.595 223.761 134.898 223.44C135.21 223.119 135.414 222.695 135.509 222.166C135.613 221.637 135.665 220.983 135.665 220.203ZM144.642 225.117C144.096 225.117 143.606 225.026 143.173 224.844C142.74 224.653 142.397 224.393 142.146 224.064C141.895 223.726 141.756 223.34 141.73 222.907H142.952C142.987 223.262 143.151 223.553 143.446 223.778C143.749 224.003 144.144 224.116 144.629 224.116C145.08 224.116 145.435 224.016 145.695 223.817C145.955 223.618 146.085 223.366 146.085 223.063C146.085 222.751 145.946 222.521 145.669 222.374C145.392 222.218 144.963 222.066 144.382 221.919C143.853 221.78 143.42 221.642 143.082 221.503C142.753 221.356 142.467 221.143 142.224 220.866C141.99 220.58 141.873 220.207 141.873 219.748C141.873 219.384 141.981 219.05 142.198 218.747C142.415 218.444 142.722 218.205 143.121 218.032C143.52 217.85 143.975 217.759 144.486 217.759C145.275 217.759 145.912 217.958 146.397 218.357C146.882 218.756 147.142 219.302 147.177 219.995H145.994C145.968 219.622 145.816 219.323 145.539 219.098C145.27 218.873 144.906 218.76 144.447 218.76C144.022 218.76 143.684 218.851 143.433 219.033C143.182 219.215 143.056 219.453 143.056 219.748C143.056 219.982 143.13 220.177 143.277 220.333C143.433 220.48 143.624 220.602 143.849 220.697C144.083 220.784 144.404 220.883 144.811 220.996C145.322 221.135 145.738 221.273 146.059 221.412C146.38 221.542 146.653 221.741 146.878 222.01C147.112 222.279 147.233 222.63 147.242 223.063C147.242 223.453 147.134 223.804 146.917 224.116C146.7 224.428 146.393 224.675 145.994 224.857C145.604 225.03 145.153 225.117 144.642 225.117ZM155.23 217.876V225H154.047V223.947C153.822 224.311 153.505 224.597 153.098 224.805C152.699 225.004 152.257 225.104 151.772 225.104C151.217 225.104 150.719 224.991 150.277 224.766C149.835 224.532 149.484 224.185 149.224 223.726C148.973 223.267 148.847 222.708 148.847 222.049V217.876H150.017V221.893C150.017 222.595 150.195 223.137 150.55 223.518C150.905 223.891 151.391 224.077 152.006 224.077C152.639 224.077 153.137 223.882 153.501 223.492C153.865 223.102 154.047 222.534 154.047 221.789V217.876H155.23ZM158.411 219.189C158.645 218.782 158.991 218.444 159.451 218.175C159.919 217.898 160.46 217.759 161.076 217.759C161.708 217.759 162.28 217.911 162.792 218.214C163.312 218.517 163.719 218.946 164.014 219.501C164.308 220.047 164.456 220.684 164.456 221.412C164.456 222.131 164.308 222.773 164.014 223.336C163.719 223.899 163.312 224.337 162.792 224.649C162.28 224.961 161.708 225.117 161.076 225.117C160.469 225.117 159.932 224.983 159.464 224.714C159.004 224.437 158.653 224.094 158.411 223.687V228.38H157.228V217.876H158.411V219.189ZM163.247 221.412C163.247 220.875 163.138 220.407 162.922 220.008C162.705 219.609 162.41 219.306 162.038 219.098C161.674 218.89 161.271 218.786 160.829 218.786C160.395 218.786 159.992 218.894 159.62 219.111C159.256 219.319 158.961 219.627 158.736 220.034C158.519 220.433 158.411 220.896 158.411 221.425C158.411 221.962 158.519 222.435 158.736 222.842C158.961 223.241 159.256 223.548 159.62 223.765C159.992 223.973 160.395 224.077 160.829 224.077C161.271 224.077 161.674 223.973 162.038 223.765C162.41 223.548 162.705 223.241 162.922 222.842C163.138 222.435 163.247 221.958 163.247 221.412ZM167.196 219.189C167.43 218.782 167.776 218.444 168.236 218.175C168.704 217.898 169.245 217.759 169.861 217.759C170.493 217.759 171.065 217.911 171.577 218.214C172.097 218.517 172.504 218.946 172.799 219.501C173.093 220.047 173.241 220.684 173.241 221.412C173.241 222.131 173.093 222.773 172.799 223.336C172.504 223.899 172.097 224.337 171.577 224.649C171.065 224.961 170.493 225.117 169.861 225.117C169.254 225.117 168.717 224.983 168.249 224.714C167.789 224.437 167.438 224.094 167.196 223.687V228.38H166.013V217.876H167.196V219.189ZM172.032 221.412C172.032 220.875 171.923 220.407 171.707 220.008C171.49 219.609 171.195 219.306 170.823 219.098C170.459 218.89 170.056 218.786 169.614 218.786C169.18 218.786 168.777 218.894 168.405 219.111C168.041 219.319 167.746 219.627 167.521 220.034C167.304 220.433 167.196 220.896 167.196 221.425C167.196 221.962 167.304 222.435 167.521 222.842C167.746 223.241 168.041 223.548 168.405 223.765C168.777 223.973 169.18 224.077 169.614 224.077C170.056 224.077 170.459 223.973 170.823 223.765C171.195 223.548 171.49 223.241 171.707 222.842C171.923 222.435 172.032 221.958 172.032 221.412ZM175.981 215.38V225H174.798V215.38H175.981ZM184.133 217.876L179.843 228.354H178.621L180.025 224.922L177.152 217.876H178.465L180.701 223.648L182.911 217.876H184.133Z" fill="#0A0A0A"/>
<path d="M115.46 378.12H108.44V382.68C108.747 382.253 109.2 381.907 109.8 381.64C110.4 381.36 111.047 381.22 111.74 381.22C112.847 381.22 113.747 381.453 114.44 381.92C115.133 382.373 115.627 382.967 115.92 383.7C116.227 384.42 116.38 385.187 116.38 386C116.38 386.96 116.2 387.82 115.84 388.58C115.48 389.34 114.927 389.94 114.18 390.38C113.447 390.82 112.533 391.04 111.44 391.04C110.04 391.04 108.907 390.68 108.04 389.96C107.173 389.24 106.647 388.28 106.46 387.08H108.24C108.413 387.84 108.78 388.433 109.34 388.86C109.9 389.287 110.607 389.5 111.46 389.5C112.513 389.5 113.307 389.187 113.84 388.56C114.373 387.92 114.64 387.08 114.64 386.04C114.64 385 114.373 384.2 113.84 383.64C113.307 383.067 112.52 382.78 111.48 382.78C110.773 382.78 110.153 382.953 109.62 383.3C109.1 383.633 108.72 384.093 108.48 384.68H106.76V376.52H115.46V378.12ZM118.799 383.62C118.799 381.327 119.172 379.54 119.919 378.26C120.665 376.967 121.972 376.32 123.839 376.32C125.692 376.32 126.992 376.967 127.739 378.26C128.485 379.54 128.859 381.327 128.859 383.62C128.859 385.953 128.485 387.767 127.739 389.06C126.992 390.353 125.692 391 123.839 391C121.972 391 120.665 390.353 119.919 389.06C119.172 387.767 118.799 385.953 118.799 383.62ZM127.059 383.62C127.059 382.46 126.979 381.48 126.819 380.68C126.672 379.867 126.359 379.213 125.879 378.72C125.412 378.227 124.732 377.98 123.839 377.98C122.932 377.98 122.239 378.227 121.759 378.72C121.292 379.213 120.979 379.867 120.819 380.68C120.672 381.48 120.599 382.46 120.599 383.62C120.599 384.82 120.672 385.827 120.819 386.64C120.979 387.453 121.292 388.107 121.759 388.6C122.239 389.093 122.932 389.34 123.839 389.34C124.732 389.34 125.412 389.093 125.879 388.6C126.359 388.107 126.672 387.453 126.819 386.64C126.979 385.827 127.059 384.82 127.059 383.62ZM131.357 383.62C131.357 381.327 131.731 379.54 132.477 378.26C133.224 376.967 134.531 376.32 136.397 376.32C138.251 376.32 139.551 376.967 140.297 378.26C141.044 379.54 141.417 381.327 141.417 383.62C141.417 385.953 141.044 387.767 140.297 389.06C139.551 390.353 138.251 391 136.397 391C134.531 391 133.224 390.353 132.477 389.06C131.731 387.767 131.357 385.953 131.357 383.62ZM139.617 383.62C139.617 382.46 139.537 381.48 139.377 380.68C139.231 379.867 138.917 379.213 138.437 378.72C137.971 378.227 137.291 377.98 136.397 377.98C135.491 377.98 134.797 378.227 134.317 378.72C133.851 379.213 133.537 379.867 133.377 380.68C133.231 381.48 133.157 382.46 133.157 383.62C133.157 384.82 133.231 385.827 133.377 386.64C133.537 387.453 133.851 388.107 134.317 388.6C134.797 389.093 135.491 389.34 136.397 389.34C137.291 389.34 137.971 389.093 138.437 388.6C138.917 388.107 139.231 387.453 139.377 386.64C139.537 385.827 139.617 384.82 139.617 383.62ZM148.868 384.02C148.868 382.66 149.174 381.44 149.788 380.36C150.401 379.267 151.234 378.413 152.288 377.8C153.354 377.187 154.534 376.88 155.828 376.88C157.348 376.88 158.674 377.247 159.808 377.98C160.941 378.713 161.768 379.753 162.288 381.1H160.108C159.721 380.26 159.161 379.613 158.428 379.16C157.708 378.707 156.841 378.48 155.828 378.48C154.854 378.48 153.981 378.707 153.208 379.16C152.434 379.613 151.828 380.26 151.388 381.1C150.948 381.927 150.728 382.9 150.728 384.02C150.728 385.127 150.948 386.1 151.388 386.94C151.828 387.767 152.434 388.407 153.208 388.86C153.981 389.313 154.854 389.54 155.828 389.54C156.841 389.54 157.708 389.32 158.428 388.88C159.161 388.427 159.721 387.78 160.108 386.94H162.288C161.768 388.273 160.941 389.307 159.808 390.04C158.674 390.76 157.348 391.12 155.828 391.12C154.534 391.12 153.354 390.82 152.288 390.22C151.234 389.607 150.401 388.76 149.788 387.68C149.174 386.6 148.868 385.38 148.868 384.02ZM166.817 381.82C167.137 381.193 167.59 380.707 168.177 380.36C168.777 380.013 169.504 379.84 170.357 379.84V381.72H169.877C167.837 381.72 166.817 382.827 166.817 385.04V391H164.997V380.04H166.817V381.82ZM177.238 391.18C176.211 391.18 175.278 390.947 174.438 390.48C173.611 390.013 172.958 389.353 172.478 388.5C172.011 387.633 171.778 386.633 171.778 385.5C171.778 384.38 172.018 383.393 172.498 382.54C172.991 381.673 173.658 381.013 174.498 380.56C175.338 380.093 176.278 379.86 177.318 379.86C178.358 379.86 179.298 380.093 180.138 380.56C180.978 381.013 181.638 381.667 182.118 382.52C182.611 383.373 182.858 384.367 182.858 385.5C182.858 386.633 182.605 387.633 182.098 388.5C181.605 389.353 180.931 390.013 180.078 390.48C179.225 390.947 178.278 391.18 177.238 391.18ZM177.238 389.58C177.891 389.58 178.505 389.427 179.078 389.12C179.651 388.813 180.111 388.353 180.458 387.74C180.818 387.127 180.998 386.38 180.998 385.5C180.998 384.62 180.825 383.873 180.478 383.26C180.131 382.647 179.678 382.193 179.118 381.9C178.558 381.593 177.951 381.44 177.298 381.44C176.631 381.44 176.018 381.593 175.458 381.9C174.911 382.193 174.471 382.647 174.138 383.26C173.805 383.873 173.638 384.62 173.638 385.5C173.638 386.393 173.798 387.147 174.118 387.76C174.451 388.373 174.891 388.833 175.438 389.14C175.985 389.433 176.585 389.58 177.238 389.58Z" fill="#0A0A0A"/>
<path d="M244.46 378.12H237.44V382.68C237.747 382.253 238.2 381.907 238.8 381.64C239.4 381.36 240.047 381.22 240.74 381.22C241.847 381.22 242.747 381.453 243.44 381.92C244.133 382.373 244.627 382.967 244.92 383.7C245.227 384.42 245.38 385.187 245.38 386C245.38 386.96 245.2 387.82 244.84 388.58C244.48 389.34 243.927 389.94 243.18 390.38C242.447 390.82 241.533 391.04 240.44 391.04C239.04 391.04 237.907 390.68 237.04 389.96C236.173 389.24 235.647 388.28 235.46 387.08H237.24C237.413 387.84 237.78 388.433 238.34 388.86C238.9 389.287 239.607 389.5 240.46 389.5C241.513 389.5 242.307 389.187 242.84 388.56C243.373 387.92 243.64 387.08 243.64 386.04C243.64 385 243.373 384.2 242.84 383.64C242.307 383.067 241.52 382.78 240.48 382.78C239.773 382.78 239.153 382.953 238.62 383.3C238.1 383.633 237.72 384.093 237.48 384.68H235.76V376.52H244.46V378.12ZM247.799 383.62C247.799 381.327 248.172 379.54 248.919 378.26C249.665 376.967 250.972 376.32 252.839 376.32C254.692 376.32 255.992 376.967 256.739 378.26C257.485 379.54 257.859 381.327 257.859 383.62C257.859 385.953 257.485 387.767 256.739 389.06C255.992 390.353 254.692 391 252.839 391C250.972 391 249.665 390.353 248.919 389.06C248.172 387.767 247.799 385.953 247.799 383.62ZM256.059 383.62C256.059 382.46 255.979 381.48 255.819 380.68C255.672 379.867 255.359 379.213 254.879 378.72C254.412 378.227 253.732 377.98 252.839 377.98C251.932 377.98 251.239 378.227 250.759 378.72C250.292 379.213 249.979 379.867 249.819 380.68C249.672 381.48 249.599 382.46 249.599 383.62C249.599 384.82 249.672 385.827 249.819 386.64C249.979 387.453 250.292 388.107 250.759 388.6C251.239 389.093 251.932 389.34 252.839 389.34C253.732 389.34 254.412 389.093 254.879 388.6C255.359 388.107 255.672 387.453 255.819 386.64C255.979 385.827 256.059 384.82 256.059 383.62ZM260.357 383.62C260.357 381.327 260.731 379.54 261.477 378.26C262.224 376.967 263.531 376.32 265.397 376.32C267.251 376.32 268.551 376.967 269.297 378.26C270.044 379.54 270.417 381.327 270.417 383.62C270.417 385.953 270.044 387.767 269.297 389.06C268.551 390.353 267.251 391 265.397 391C263.531 391 262.224 390.353 261.477 389.06C260.731 387.767 260.357 385.953 260.357 383.62ZM268.617 383.62C268.617 382.46 268.537 381.48 268.377 380.68C268.231 379.867 267.917 379.213 267.437 378.72C266.971 378.227 266.291 377.98 265.397 377.98C264.491 377.98 263.797 378.227 263.317 378.72C262.851 379.213 262.537 379.867 262.377 380.68C262.231 381.48 262.157 382.46 262.157 383.62C262.157 384.82 262.231 385.827 262.377 386.64C262.537 387.453 262.851 388.107 263.317 388.6C263.797 389.093 264.491 389.34 265.397 389.34C266.291 389.34 266.971 389.093 267.437 388.6C267.917 388.107 268.231 387.453 268.377 386.64C268.537 385.827 268.617 384.82 268.617 383.62ZM277.868 384.02C277.868 382.66 278.174 381.44 278.788 380.36C279.401 379.267 280.234 378.413 281.288 377.8C282.354 377.187 283.534 376.88 284.828 376.88C286.348 376.88 287.674 377.247 288.808 377.98C289.941 378.713 290.768 379.753 291.288 381.1H289.108C288.721 380.26 288.161 379.613 287.428 379.16C286.708 378.707 285.841 378.48 284.828 378.48C283.854 378.48 282.981 378.707 282.208 379.16C281.434 379.613 280.828 380.26 280.388 381.1C279.948 381.927 279.728 382.9 279.728 384.02C279.728 385.127 279.948 386.1 280.388 386.94C280.828 387.767 281.434 388.407 282.208 388.86C282.981 389.313 283.854 389.54 284.828 389.54C285.841 389.54 286.708 389.32 287.428 388.88C288.161 388.427 288.721 387.78 289.108 386.94H291.288C290.768 388.273 289.941 389.307 288.808 390.04C287.674 390.76 286.348 391.12 284.828 391.12C283.534 391.12 282.354 390.82 281.288 390.22C280.234 389.607 279.401 388.76 278.788 387.68C278.174 386.6 277.868 385.38 277.868 384.02ZM295.817 381.82C296.137 381.193 296.59 380.707 297.177 380.36C297.777 380.013 298.504 379.84 299.357 379.84V381.72H298.877C296.837 381.72 295.817 382.827 295.817 385.04V391H293.997V380.04H295.817V381.82ZM306.238 391.18C305.211 391.18 304.278 390.947 303.438 390.48C302.611 390.013 301.958 389.353 301.478 388.5C301.011 387.633 300.778 386.633 300.778 385.5C300.778 384.38 301.018 383.393 301.498 382.54C301.991 381.673 302.658 381.013 303.498 380.56C304.338 380.093 305.278 379.86 306.318 379.86C307.358 379.86 308.298 380.093 309.138 380.56C309.978 381.013 310.638 381.667 311.118 382.52C311.611 383.373 311.858 384.367 311.858 385.5C311.858 386.633 311.605 387.633 311.098 388.5C310.605 389.353 309.931 390.013 309.078 390.48C308.225 390.947 307.278 391.18 306.238 391.18ZM306.238 389.58C306.891 389.58 307.505 389.427 308.078 389.12C308.651 388.813 309.111 388.353 309.458 387.74C309.818 387.127 309.998 386.38 309.998 385.5C309.998 384.62 309.825 383.873 309.478 383.26C309.131 382.647 308.678 382.193 308.118 381.9C307.558 381.593 306.951 381.44 306.298 381.44C305.631 381.44 305.018 381.593 304.458 381.9C303.911 382.193 303.471 382.647 303.138 383.26C302.805 383.873 302.638 384.62 302.638 385.5C302.638 386.393 302.798 387.147 303.118 387.76C303.451 388.373 303.891 388.833 304.438 389.14C304.985 389.433 305.585 389.58 306.238 389.58Z" fill="#0A0A0A"/>
<path d="M373.46 378.12H366.44V382.68C366.747 382.253 367.2 381.907 367.8 381.64C368.4 381.36 369.047 381.22 369.74 381.22C370.847 381.22 371.747 381.453 372.44 381.92C373.133 382.373 373.627 382.967 373.92 383.7C374.227 384.42 374.38 385.187 374.38 386C374.38 386.96 374.2 387.82 373.84 388.58C373.48 389.34 372.927 389.94 372.18 390.38C371.447 390.82 370.533 391.04 369.44 391.04C368.04 391.04 366.907 390.68 366.04 389.96C365.173 389.24 364.647 388.28 364.46 387.08H366.24C366.413 387.84 366.78 388.433 367.34 388.86C367.9 389.287 368.607 389.5 369.46 389.5C370.513 389.5 371.307 389.187 371.84 388.56C372.373 387.92 372.64 387.08 372.64 386.04C372.64 385 372.373 384.2 371.84 383.64C371.307 383.067 370.52 382.78 369.48 382.78C368.773 382.78 368.153 382.953 367.62 383.3C367.1 383.633 366.72 384.093 366.48 384.68H364.76V376.52H373.46V378.12ZM376.799 383.62C376.799 381.327 377.172 379.54 377.919 378.26C378.665 376.967 379.972 376.32 381.839 376.32C383.692 376.32 384.992 376.967 385.739 378.26C386.485 379.54 386.859 381.327 386.859 383.62C386.859 385.953 386.485 387.767 385.739 389.06C384.992 390.353 383.692 391 381.839 391C379.972 391 378.665 390.353 377.919 389.06C377.172 387.767 376.799 385.953 376.799 383.62ZM385.059 383.62C385.059 382.46 384.979 381.48 384.819 380.68C384.672 379.867 384.359 379.213 383.879 378.72C383.412 378.227 382.732 377.98 381.839 377.98C380.932 377.98 380.239 378.227 379.759 378.72C379.292 379.213 378.979 379.867 378.819 380.68C378.672 381.48 378.599 382.46 378.599 383.62C378.599 384.82 378.672 385.827 378.819 386.64C378.979 387.453 379.292 388.107 379.759 388.6C380.239 389.093 380.932 389.34 381.839 389.34C382.732 389.34 383.412 389.093 383.879 388.6C384.359 388.107 384.672 387.453 384.819 386.64C384.979 385.827 385.059 384.82 385.059 383.62ZM389.357 383.62C389.357 381.327 389.731 379.54 390.477 378.26C391.224 376.967 392.531 376.32 394.397 376.32C396.251 376.32 397.551 376.967 398.297 378.26C399.044 379.54 399.417 381.327 399.417 383.62C399.417 385.953 399.044 387.767 398.297 389.06C397.551 390.353 396.251 391 394.397 391C392.531 391 391.224 390.353 390.477 389.06C389.731 387.767 389.357 385.953 389.357 383.62ZM397.617 383.62C397.617 382.46 397.537 381.48 397.377 380.68C397.231 379.867 396.917 379.213 396.437 378.72C395.971 378.227 395.291 377.98 394.397 377.98C393.491 377.98 392.797 378.227 392.317 378.72C391.851 379.213 391.537 379.867 391.377 380.68C391.231 381.48 391.157 382.46 391.157 383.62C391.157 384.82 391.231 385.827 391.377 386.64C391.537 387.453 391.851 388.107 392.317 388.6C392.797 389.093 393.491 389.34 394.397 389.34C395.291 389.34 395.971 389.093 396.437 388.6C396.917 388.107 397.231 387.453 397.377 386.64C397.537 385.827 397.617 384.82 397.617 383.62ZM406.868 384.02C406.868 382.66 407.174 381.44 407.788 380.36C408.401 379.267 409.234 378.413 410.288 377.8C411.354 377.187 412.534 376.88 413.828 376.88C415.348 376.88 416.674 377.247 417.808 377.98C418.941 378.713 419.768 379.753 420.288 381.1H418.108C417.721 380.26 417.161 379.613 416.428 379.16C415.708 378.707 414.841 378.48 413.828 378.48C412.854 378.48 411.981 378.707 411.208 379.16C410.434 379.613 409.828 380.26 409.388 381.1C408.948 381.927 408.728 382.9 408.728 384.02C408.728 385.127 408.948 386.1 409.388 386.94C409.828 387.767 410.434 388.407 411.208 388.86C411.981 389.313 412.854 389.54 413.828 389.54C414.841 389.54 415.708 389.32 416.428 388.88C417.161 388.427 417.721 387.78 418.108 386.94H420.288C419.768 388.273 418.941 389.307 417.808 390.04C416.674 390.76 415.348 391.12 413.828 391.12C412.534 391.12 411.354 390.82 410.288 390.22C409.234 389.607 408.401 388.76 407.788 387.68C407.174 386.6 406.868 385.38 406.868 384.02ZM424.817 381.82C425.137 381.193 425.59 380.707 426.177 380.36C426.777 380.013 427.504 379.84 428.357 379.84V381.72H427.877C425.837 381.72 424.817 382.827 424.817 385.04V391H422.997V380.04H424.817V381.82ZM435.238 391.18C434.211 391.18 433.278 390.947 432.438 390.48C431.611 390.013 430.958 389.353 430.478 388.5C430.011 387.633 429.778 386.633 429.778 385.5C429.778 384.38 430.018 383.393 430.498 382.54C430.991 381.673 431.658 381.013 432.498 380.56C433.338 380.093 434.278 379.86 435.318 379.86C436.358 379.86 437.298 380.093 438.138 380.56C438.978 381.013 439.638 381.667 440.118 382.52C440.611 383.373 440.858 384.367 440.858 385.5C440.858 386.633 440.605 387.633 440.098 388.5C439.605 389.353 438.931 390.013 438.078 390.48C437.225 390.947 436.278 391.18 435.238 391.18ZM435.238 389.58C435.891 389.58 436.505 389.427 437.078 389.12C437.651 388.813 438.111 388.353 438.458 387.74C438.818 387.127 438.998 386.38 438.998 385.5C438.998 384.62 438.825 383.873 438.478 383.26C438.131 382.647 437.678 382.193 437.118 381.9C436.558 381.593 435.951 381.44 435.298 381.44C434.631 381.44 434.018 381.593 433.458 381.9C432.911 382.193 432.471 382.647 432.138 383.26C431.805 383.873 431.638 384.62 431.638 385.5C431.638 386.393 431.798 387.147 432.118 387.76C432.451 388.373 432.891 388.833 433.438 389.14C433.985 389.433 434.585 389.58 435.238 389.58Z" fill="#0A0A0A"/>
<path d="M101.043 410.418C100.211 409.603 99.561 408.568 99.093 407.311C98.6337 406.054 98.404 404.698 98.404 403.242C98.404 401.751 98.6467 400.36 99.132 399.069C99.626 397.769 100.328 396.699 101.238 395.858H102.473V395.975C101.502 396.885 100.77 397.981 100.276 399.264C99.7907 400.538 99.548 401.864 99.548 403.242C99.548 404.585 99.7777 405.868 100.237 407.09C100.705 408.312 101.385 409.382 102.278 410.301V410.418H101.043ZM110.664 403.749H107.895V406.557H106.79V403.749H104.034V402.748H106.79V399.927H107.895V402.748H110.664V403.749ZM115.737 399.68V398.601H118.181V408H116.985V399.68H115.737ZM119.953 400.72C119.953 400.131 120.131 399.663 120.486 399.316C120.842 398.961 121.297 398.783 121.851 398.783C122.406 398.783 122.861 398.961 123.216 399.316C123.572 399.663 123.749 400.131 123.749 400.72C123.749 401.318 123.572 401.795 123.216 402.15C122.861 402.497 122.406 402.67 121.851 402.67C121.297 402.67 120.842 402.497 120.486 402.15C120.131 401.795 119.953 401.318 119.953 400.72ZM127.545 398.926L122.28 408H121.11L126.375 398.926H127.545ZM121.851 399.511C121.557 399.511 121.323 399.615 121.149 399.823C120.985 400.022 120.902 400.321 120.902 400.72C120.902 401.119 120.985 401.422 121.149 401.63C121.323 401.838 121.557 401.942 121.851 401.942C122.146 401.942 122.38 401.838 122.553 401.63C122.727 401.413 122.813 401.11 122.813 400.72C122.813 400.321 122.727 400.022 122.553 399.823C122.38 399.615 122.146 399.511 121.851 399.511ZM124.932 406.206C124.932 405.608 125.11 405.136 125.465 404.789C125.821 404.434 126.276 404.256 126.83 404.256C127.385 404.256 127.836 404.434 128.182 404.789C128.538 405.136 128.715 405.608 128.715 406.206C128.715 406.795 128.538 407.268 128.182 407.623C127.836 407.978 127.385 408.156 126.83 408.156C126.276 408.156 125.821 407.983 125.465 407.636C125.11 407.281 124.932 406.804 124.932 406.206ZM126.817 404.997C126.523 404.997 126.289 405.101 126.115 405.309C125.942 405.508 125.855 405.807 125.855 406.206C125.855 406.596 125.942 406.895 126.115 407.103C126.289 407.302 126.523 407.402 126.817 407.402C127.112 407.402 127.346 407.302 127.519 407.103C127.693 406.895 127.779 406.596 127.779 406.206C127.779 405.807 127.693 405.508 127.519 405.309C127.346 405.101 127.112 404.997 126.817 404.997ZM138.509 408L136.351 404.295H134.921V408H133.738V398.939H136.663C137.348 398.939 137.924 399.056 138.392 399.29C138.869 399.524 139.224 399.84 139.458 400.239C139.692 400.638 139.809 401.093 139.809 401.604C139.809 402.228 139.627 402.778 139.263 403.255C138.908 403.732 138.371 404.048 137.651 404.204L139.926 408H138.509ZM134.921 403.346H136.663C137.305 403.346 137.786 403.19 138.106 402.878C138.427 402.557 138.587 402.133 138.587 401.604C138.587 401.067 138.427 400.651 138.106 400.356C137.794 400.061 137.313 399.914 136.663 399.914H134.921V403.346ZM144.754 408.117C144.087 408.117 143.48 407.965 142.934 407.662C142.397 407.359 141.972 406.93 141.66 406.375C141.357 405.812 141.205 405.162 141.205 404.425C141.205 403.697 141.361 403.056 141.673 402.501C141.994 401.938 142.427 401.509 142.973 401.214C143.519 400.911 144.13 400.759 144.806 400.759C145.482 400.759 146.093 400.911 146.639 401.214C147.185 401.509 147.614 401.933 147.926 402.488C148.247 403.043 148.407 403.688 148.407 404.425C148.407 405.162 148.243 405.812 147.913 406.375C147.593 406.93 147.155 407.359 146.6 407.662C146.046 407.965 145.43 408.117 144.754 408.117ZM144.754 407.077C145.179 407.077 145.578 406.977 145.95 406.778C146.323 406.579 146.622 406.28 146.847 405.881C147.081 405.482 147.198 404.997 147.198 404.425C147.198 403.853 147.086 403.368 146.86 402.969C146.635 402.57 146.34 402.276 145.976 402.085C145.612 401.886 145.218 401.786 144.793 401.786C144.36 401.786 143.961 401.886 143.597 402.085C143.242 402.276 142.956 402.57 142.739 402.969C142.523 403.368 142.414 403.853 142.414 404.425C142.414 405.006 142.518 405.495 142.726 405.894C142.943 406.293 143.229 406.592 143.584 406.791C143.94 406.982 144.33 407.077 144.754 407.077ZM156.099 400.876L151.809 411.354H150.587L151.991 407.922L149.118 400.876H150.431L152.667 406.648L154.877 400.876H156.099ZM156.846 404.412C156.846 403.684 156.993 403.047 157.288 402.501C157.583 401.946 157.986 401.517 158.497 401.214C159.017 400.911 159.593 400.759 160.226 400.759C160.85 400.759 161.392 400.893 161.851 401.162C162.31 401.431 162.653 401.769 162.878 402.176V400.876H164.074V408H162.878V406.674C162.644 407.09 162.293 407.437 161.825 407.714C161.366 407.983 160.828 408.117 160.213 408.117C159.58 408.117 159.008 407.961 158.497 407.649C157.986 407.337 157.583 406.899 157.288 406.336C156.993 405.773 156.846 405.131 156.846 404.412ZM162.878 404.425C162.878 403.888 162.77 403.42 162.553 403.021C162.336 402.622 162.042 402.319 161.669 402.111C161.305 401.894 160.902 401.786 160.46 401.786C160.018 401.786 159.615 401.89 159.251 402.098C158.887 402.306 158.597 402.609 158.38 403.008C158.163 403.407 158.055 403.875 158.055 404.412C158.055 404.958 158.163 405.435 158.38 405.842C158.597 406.241 158.887 406.548 159.251 406.765C159.615 406.973 160.018 407.077 160.46 407.077C160.902 407.077 161.305 406.973 161.669 406.765C162.042 406.548 162.336 406.241 162.553 405.842C162.77 405.435 162.878 404.962 162.878 404.425ZM167.256 398.38V408H166.073V398.38H167.256ZM170.715 401.851V406.05C170.715 406.397 170.789 406.644 170.936 406.791C171.084 406.93 171.339 406.999 171.703 406.999H172.574V408H171.508C170.85 408 170.356 407.848 170.026 407.545C169.697 407.242 169.532 406.743 169.532 406.05V401.851H168.609V400.876H169.532V399.082H170.715V400.876H172.574V401.851H170.715ZM174.619 399.719C174.394 399.719 174.203 399.641 174.047 399.485C173.891 399.329 173.813 399.138 173.813 398.913C173.813 398.688 173.891 398.497 174.047 398.341C174.203 398.185 174.394 398.107 174.619 398.107C174.836 398.107 175.018 398.185 175.165 398.341C175.321 398.497 175.399 398.688 175.399 398.913C175.399 399.138 175.321 399.329 175.165 399.485C175.018 399.641 174.836 399.719 174.619 399.719ZM175.191 400.876V408H174.008V400.876H175.191ZM183.707 404.165C183.707 404.39 183.694 404.629 183.668 404.88H177.974C178.017 405.582 178.256 406.132 178.689 406.531C179.131 406.921 179.664 407.116 180.288 407.116C180.799 407.116 181.224 406.999 181.562 406.765C181.909 406.522 182.151 406.202 182.29 405.803H183.564C183.373 406.488 182.992 407.047 182.42 407.48C181.848 407.905 181.137 408.117 180.288 408.117C179.612 408.117 179.005 407.965 178.468 407.662C177.939 407.359 177.523 406.93 177.22 406.375C176.917 405.812 176.765 405.162 176.765 404.425C176.765 403.688 176.912 403.043 177.207 402.488C177.502 401.933 177.913 401.509 178.442 401.214C178.979 400.911 179.595 400.759 180.288 400.759C180.964 400.759 181.562 400.906 182.082 401.201C182.602 401.496 183.001 401.903 183.278 402.423C183.564 402.934 183.707 403.515 183.707 404.165ZM182.485 403.918C182.485 403.467 182.385 403.082 182.186 402.761C181.987 402.432 181.714 402.185 181.367 402.02C181.029 401.847 180.652 401.76 180.236 401.76C179.638 401.76 179.127 401.951 178.702 402.332C178.286 402.713 178.048 403.242 177.987 403.918H182.485ZM187.791 408.117C187.245 408.117 186.755 408.026 186.322 407.844C185.888 407.653 185.546 407.393 185.295 407.064C185.043 406.726 184.905 406.34 184.879 405.907H186.101C186.135 406.262 186.3 406.553 186.595 406.778C186.898 407.003 187.292 407.116 187.778 407.116C188.228 407.116 188.584 407.016 188.844 406.817C189.104 406.618 189.234 406.366 189.234 406.063C189.234 405.751 189.095 405.521 188.818 405.374C188.54 405.218 188.111 405.066 187.531 404.919C187.002 404.78 186.569 404.642 186.231 404.503C185.901 404.356 185.615 404.143 185.373 403.866C185.139 403.58 185.022 403.207 185.022 402.748C185.022 402.384 185.13 402.05 185.347 401.747C185.563 401.444 185.871 401.205 186.27 401.032C186.668 400.85 187.123 400.759 187.635 400.759C188.423 400.759 189.06 400.958 189.546 401.357C190.031 401.756 190.291 402.302 190.326 402.995H189.143C189.117 402.622 188.965 402.323 188.688 402.098C188.419 401.873 188.055 401.76 187.596 401.76C187.171 401.76 186.833 401.851 186.582 402.033C186.33 402.215 186.205 402.453 186.205 402.748C186.205 402.982 186.278 403.177 186.426 403.333C186.582 403.48 186.772 403.602 186.998 403.697C187.232 403.784 187.552 403.883 187.96 403.996C188.471 404.135 188.887 404.273 189.208 404.412C189.528 404.542 189.801 404.741 190.027 405.01C190.261 405.279 190.382 405.63 190.391 406.063C190.391 406.453 190.282 406.804 190.066 407.116C189.849 407.428 189.541 407.675 189.143 407.857C188.753 408.03 188.302 408.117 187.791 408.117ZM191.684 410.418V410.301C192.576 409.382 193.252 408.312 193.712 407.09C194.18 405.868 194.414 404.585 194.414 403.242C194.414 401.864 194.167 400.538 193.673 399.264C193.187 397.981 192.459 396.885 191.489 395.975V395.858H192.724C193.634 396.699 194.331 397.769 194.817 399.069C195.311 400.36 195.558 401.751 195.558 403.242C195.558 404.698 195.324 406.054 194.856 407.311C194.396 408.568 193.751 409.603 192.919 410.418H191.684Z" fill="#0A0A0A"/>
<path d="M230.043 410.418C229.211 409.603 228.561 408.568 228.093 407.311C227.634 406.054 227.404 404.698 227.404 403.242C227.404 401.751 227.647 400.36 228.132 399.069C228.626 397.769 229.328 396.699 230.238 395.858H231.473V395.975C230.502 396.885 229.77 397.981 229.276 399.264C228.791 400.538 228.548 401.864 228.548 403.242C228.548 404.585 228.778 405.868 229.237 407.09C229.705 408.312 230.385 409.382 231.278 410.301V410.418H230.043ZM239.664 403.749H236.895V406.557H235.79V403.749H233.034V402.748H235.79V399.927H236.895V402.748H239.664V403.749ZM244.737 399.68V398.601H247.181V408H245.985V399.68H244.737ZM248.953 400.72C248.953 400.131 249.131 399.663 249.486 399.316C249.842 398.961 250.297 398.783 250.851 398.783C251.406 398.783 251.861 398.961 252.216 399.316C252.572 399.663 252.749 400.131 252.749 400.72C252.749 401.318 252.572 401.795 252.216 402.15C251.861 402.497 251.406 402.67 250.851 402.67C250.297 402.67 249.842 402.497 249.486 402.15C249.131 401.795 248.953 401.318 248.953 400.72ZM256.545 398.926L251.28 408H250.11L255.375 398.926H256.545ZM250.851 399.511C250.557 399.511 250.323 399.615 250.149 399.823C249.985 400.022 249.902 400.321 249.902 400.72C249.902 401.119 249.985 401.422 250.149 401.63C250.323 401.838 250.557 401.942 250.851 401.942C251.146 401.942 251.38 401.838 251.553 401.63C251.727 401.413 251.813 401.11 251.813 400.72C251.813 400.321 251.727 400.022 251.553 399.823C251.38 399.615 251.146 399.511 250.851 399.511ZM253.932 406.206C253.932 405.608 254.11 405.136 254.465 404.789C254.821 404.434 255.276 404.256 255.83 404.256C256.385 404.256 256.836 404.434 257.182 404.789C257.538 405.136 257.715 405.608 257.715 406.206C257.715 406.795 257.538 407.268 257.182 407.623C256.836 407.978 256.385 408.156 255.83 408.156C255.276 408.156 254.821 407.983 254.465 407.636C254.11 407.281 253.932 406.804 253.932 406.206ZM255.817 404.997C255.523 404.997 255.289 405.101 255.115 405.309C254.942 405.508 254.855 405.807 254.855 406.206C254.855 406.596 254.942 406.895 255.115 407.103C255.289 407.302 255.523 407.402 255.817 407.402C256.112 407.402 256.346 407.302 256.519 407.103C256.693 406.895 256.779 406.596 256.779 406.206C256.779 405.807 256.693 405.508 256.519 405.309C256.346 405.101 256.112 404.997 255.817 404.997ZM267.509 408L265.351 404.295H263.921V408H262.738V398.939H265.663C266.348 398.939 266.924 399.056 267.392 399.29C267.869 399.524 268.224 399.84 268.458 400.239C268.692 400.638 268.809 401.093 268.809 401.604C268.809 402.228 268.627 402.778 268.263 403.255C267.908 403.732 267.371 404.048 266.651 404.204L268.926 408H267.509ZM263.921 403.346H265.663C266.305 403.346 266.786 403.19 267.106 402.878C267.427 402.557 267.587 402.133 267.587 401.604C267.587 401.067 267.427 400.651 267.106 400.356C266.794 400.061 266.313 399.914 265.663 399.914H263.921V403.346ZM273.754 408.117C273.087 408.117 272.48 407.965 271.934 407.662C271.397 407.359 270.972 406.93 270.66 406.375C270.357 405.812 270.205 405.162 270.205 404.425C270.205 403.697 270.361 403.056 270.673 402.501C270.994 401.938 271.427 401.509 271.973 401.214C272.519 400.911 273.13 400.759 273.806 400.759C274.482 400.759 275.093 400.911 275.639 401.214C276.185 401.509 276.614 401.933 276.926 402.488C277.247 403.043 277.407 403.688 277.407 404.425C277.407 405.162 277.243 405.812 276.913 406.375C276.593 406.93 276.155 407.359 275.6 407.662C275.046 407.965 274.43 408.117 273.754 408.117ZM273.754 407.077C274.179 407.077 274.578 406.977 274.95 406.778C275.323 406.579 275.622 406.28 275.847 405.881C276.081 405.482 276.198 404.997 276.198 404.425C276.198 403.853 276.086 403.368 275.86 402.969C275.635 402.57 275.34 402.276 274.976 402.085C274.612 401.886 274.218 401.786 273.793 401.786C273.36 401.786 272.961 401.886 272.597 402.085C272.242 402.276 271.956 402.57 271.739 402.969C271.523 403.368 271.414 403.853 271.414 404.425C271.414 405.006 271.518 405.495 271.726 405.894C271.943 406.293 272.229 406.592 272.584 406.791C272.94 406.982 273.33 407.077 273.754 407.077ZM285.099 400.876L280.809 411.354H279.587L280.991 407.922L278.118 400.876H279.431L281.667 406.648L283.877 400.876H285.099ZM285.846 404.412C285.846 403.684 285.993 403.047 286.288 402.501C286.583 401.946 286.986 401.517 287.497 401.214C288.017 400.911 288.593 400.759 289.226 400.759C289.85 400.759 290.392 400.893 290.851 401.162C291.31 401.431 291.653 401.769 291.878 402.176V400.876H293.074V408H291.878V406.674C291.644 407.09 291.293 407.437 290.825 407.714C290.366 407.983 289.828 408.117 289.213 408.117C288.58 408.117 288.008 407.961 287.497 407.649C286.986 407.337 286.583 406.899 286.288 406.336C285.993 405.773 285.846 405.131 285.846 404.412ZM291.878 404.425C291.878 403.888 291.77 403.42 291.553 403.021C291.336 402.622 291.042 402.319 290.669 402.111C290.305 401.894 289.902 401.786 289.46 401.786C289.018 401.786 288.615 401.89 288.251 402.098C287.887 402.306 287.597 402.609 287.38 403.008C287.163 403.407 287.055 403.875 287.055 404.412C287.055 404.958 287.163 405.435 287.38 405.842C287.597 406.241 287.887 406.548 288.251 406.765C288.615 406.973 289.018 407.077 289.46 407.077C289.902 407.077 290.305 406.973 290.669 406.765C291.042 406.548 291.336 406.241 291.553 405.842C291.77 405.435 291.878 404.962 291.878 404.425ZM296.256 398.38V408H295.073V398.38H296.256ZM299.715 401.851V406.05C299.715 406.397 299.789 406.644 299.936 406.791C300.084 406.93 300.339 406.999 300.703 406.999H301.574V408H300.508C299.85 408 299.356 407.848 299.026 407.545C298.697 407.242 298.532 406.743 298.532 406.05V401.851H297.609V400.876H298.532V399.082H299.715V400.876H301.574V401.851H299.715ZM303.619 399.719C303.394 399.719 303.203 399.641 303.047 399.485C302.891 399.329 302.813 399.138 302.813 398.913C302.813 398.688 302.891 398.497 303.047 398.341C303.203 398.185 303.394 398.107 303.619 398.107C303.836 398.107 304.018 398.185 304.165 398.341C304.321 398.497 304.399 398.688 304.399 398.913C304.399 399.138 304.321 399.329 304.165 399.485C304.018 399.641 303.836 399.719 303.619 399.719ZM304.191 400.876V408H303.008V400.876H304.191ZM312.707 404.165C312.707 404.39 312.694 404.629 312.668 404.88H306.974C307.017 405.582 307.256 406.132 307.689 406.531C308.131 406.921 308.664 407.116 309.288 407.116C309.799 407.116 310.224 406.999 310.562 406.765C310.909 406.522 311.151 406.202 311.29 405.803H312.564C312.373 406.488 311.992 407.047 311.42 407.48C310.848 407.905 310.137 408.117 309.288 408.117C308.612 408.117 308.005 407.965 307.468 407.662C306.939 407.359 306.523 406.93 306.22 406.375C305.917 405.812 305.765 405.162 305.765 404.425C305.765 403.688 305.912 403.043 306.207 402.488C306.502 401.933 306.913 401.509 307.442 401.214C307.979 400.911 308.595 400.759 309.288 400.759C309.964 400.759 310.562 400.906 311.082 401.201C311.602 401.496 312.001 401.903 312.278 402.423C312.564 402.934 312.707 403.515 312.707 404.165ZM311.485 403.918C311.485 403.467 311.385 403.082 311.186 402.761C310.987 402.432 310.714 402.185 310.367 402.02C310.029 401.847 309.652 401.76 309.236 401.76C308.638 401.76 308.127 401.951 307.702 402.332C307.286 402.713 307.048 403.242 306.987 403.918H311.485ZM316.791 408.117C316.245 408.117 315.755 408.026 315.322 407.844C314.888 407.653 314.546 407.393 314.295 407.064C314.043 406.726 313.905 406.34 313.879 405.907H315.101C315.135 406.262 315.3 406.553 315.595 406.778C315.898 407.003 316.292 407.116 316.778 407.116C317.228 407.116 317.584 407.016 317.844 406.817C318.104 406.618 318.234 406.366 318.234 406.063C318.234 405.751 318.095 405.521 317.818 405.374C317.54 405.218 317.111 405.066 316.531 404.919C316.002 404.78 315.569 404.642 315.231 404.503C314.901 404.356 314.615 404.143 314.373 403.866C314.139 403.58 314.022 403.207 314.022 402.748C314.022 402.384 314.13 402.05 314.347 401.747C314.563 401.444 314.871 401.205 315.27 401.032C315.668 400.85 316.123 400.759 316.635 400.759C317.423 400.759 318.06 400.958 318.546 401.357C319.031 401.756 319.291 402.302 319.326 402.995H318.143C318.117 402.622 317.965 402.323 317.688 402.098C317.419 401.873 317.055 401.76 316.596 401.76C316.171 401.76 315.833 401.851 315.582 402.033C315.33 402.215 315.205 402.453 315.205 402.748C315.205 402.982 315.278 403.177 315.426 403.333C315.582 403.48 315.772 403.602 315.998 403.697C316.232 403.784 316.552 403.883 316.96 403.996C317.471 404.135 317.887 404.273 318.208 404.412C318.528 404.542 318.801 404.741 319.027 405.01C319.261 405.279 319.382 405.63 319.391 406.063C319.391 406.453 319.282 406.804 319.066 407.116C318.849 407.428 318.541 407.675 318.143 407.857C317.753 408.03 317.302 408.117 316.791 408.117ZM320.684 410.418V410.301C321.576 409.382 322.252 408.312 322.712 407.09C323.18 405.868 323.414 404.585 323.414 403.242C323.414 401.864 323.167 400.538 322.673 399.264C322.187 397.981 321.459 396.885 320.489 395.975V395.858H321.724C322.634 396.699 323.331 397.769 323.817 399.069C324.311 400.36 324.558 401.751 324.558 403.242C324.558 404.698 324.324 406.054 323.856 407.311C323.396 408.568 322.751 409.603 321.919 410.418H320.684Z" fill="#0A0A0A"/>
<path d="M359.043 410.418C358.211 409.603 357.561 408.568 357.093 407.311C356.634 406.054 356.404 404.698 356.404 403.242C356.404 401.751 356.647 400.36 357.132 399.069C357.626 397.769 358.328 396.699 359.238 395.858H360.473V395.975C359.502 396.885 358.77 397.981 358.276 399.264C357.791 400.538 357.548 401.864 357.548 403.242C357.548 404.585 357.778 405.868 358.237 407.09C358.705 408.312 359.385 409.382 360.278 410.301V410.418H359.043ZM368.664 403.749H365.895V406.557H364.79V403.749H362.034V402.748H364.79V399.927H365.895V402.748H368.664V403.749ZM373.737 399.68V398.601H376.181V408H374.985V399.68H373.737ZM377.953 400.72C377.953 400.131 378.131 399.663 378.486 399.316C378.842 398.961 379.297 398.783 379.851 398.783C380.406 398.783 380.861 398.961 381.216 399.316C381.572 399.663 381.749 400.131 381.749 400.72C381.749 401.318 381.572 401.795 381.216 402.15C380.861 402.497 380.406 402.67 379.851 402.67C379.297 402.67 378.842 402.497 378.486 402.15C378.131 401.795 377.953 401.318 377.953 400.72ZM385.545 398.926L380.28 408H379.11L384.375 398.926H385.545ZM379.851 399.511C379.557 399.511 379.323 399.615 379.149 399.823C378.985 400.022 378.902 400.321 378.902 400.72C378.902 401.119 378.985 401.422 379.149 401.63C379.323 401.838 379.557 401.942 379.851 401.942C380.146 401.942 380.38 401.838 380.553 401.63C380.727 401.413 380.813 401.11 380.813 400.72C380.813 400.321 380.727 400.022 380.553 399.823C380.38 399.615 380.146 399.511 379.851 399.511ZM382.932 406.206C382.932 405.608 383.11 405.136 383.465 404.789C383.821 404.434 384.276 404.256 384.83 404.256C385.385 404.256 385.836 404.434 386.182 404.789C386.538 405.136 386.715 405.608 386.715 406.206C386.715 406.795 386.538 407.268 386.182 407.623C385.836 407.978 385.385 408.156 384.83 408.156C384.276 408.156 383.821 407.983 383.465 407.636C383.11 407.281 382.932 406.804 382.932 406.206ZM384.817 404.997C384.523 404.997 384.289 405.101 384.115 405.309C383.942 405.508 383.855 405.807 383.855 406.206C383.855 406.596 383.942 406.895 384.115 407.103C384.289 407.302 384.523 407.402 384.817 407.402C385.112 407.402 385.346 407.302 385.519 407.103C385.693 406.895 385.779 406.596 385.779 406.206C385.779 405.807 385.693 405.508 385.519 405.309C385.346 405.101 385.112 404.997 384.817 404.997ZM396.509 408L394.351 404.295H392.921V408H391.738V398.939H394.663C395.348 398.939 395.924 399.056 396.392 399.29C396.869 399.524 397.224 399.84 397.458 400.239C397.692 400.638 397.809 401.093 397.809 401.604C397.809 402.228 397.627 402.778 397.263 403.255C396.908 403.732 396.371 404.048 395.651 404.204L397.926 408H396.509ZM392.921 403.346H394.663C395.305 403.346 395.786 403.19 396.106 402.878C396.427 402.557 396.587 402.133 396.587 401.604C396.587 401.067 396.427 400.651 396.106 400.356C395.794 400.061 395.313 399.914 394.663 399.914H392.921V403.346ZM402.754 408.117C402.087 408.117 401.48 407.965 400.934 407.662C400.397 407.359 399.972 406.93 399.66 406.375C399.357 405.812 399.205 405.162 399.205 404.425C399.205 403.697 399.361 403.056 399.673 402.501C399.994 401.938 400.427 401.509 400.973 401.214C401.519 400.911 402.13 400.759 402.806 400.759C403.482 400.759 404.093 400.911 404.639 401.214C405.185 401.509 405.614 401.933 405.926 402.488C406.247 403.043 406.407 403.688 406.407 404.425C406.407 405.162 406.243 405.812 405.913 406.375C405.593 406.93 405.155 407.359 404.6 407.662C404.046 407.965 403.43 408.117 402.754 408.117ZM402.754 407.077C403.179 407.077 403.578 406.977 403.95 406.778C404.323 406.579 404.622 406.28 404.847 405.881C405.081 405.482 405.198 404.997 405.198 404.425C405.198 403.853 405.086 403.368 404.86 402.969C404.635 402.57 404.34 402.276 403.976 402.085C403.612 401.886 403.218 401.786 402.793 401.786C402.36 401.786 401.961 401.886 401.597 402.085C401.242 402.276 400.956 402.57 400.739 402.969C400.523 403.368 400.414 403.853 400.414 404.425C400.414 405.006 400.518 405.495 400.726 405.894C400.943 406.293 401.229 406.592 401.584 406.791C401.94 406.982 402.33 407.077 402.754 407.077ZM414.099 400.876L409.809 411.354H408.587L409.991 407.922L407.118 400.876H408.431L410.667 406.648L412.877 400.876H414.099ZM414.846 404.412C414.846 403.684 414.993 403.047 415.288 402.501C415.583 401.946 415.986 401.517 416.497 401.214C417.017 400.911 417.593 400.759 418.226 400.759C418.85 400.759 419.392 400.893 419.851 401.162C420.31 401.431 420.653 401.769 420.878 402.176V400.876H422.074V408H420.878V406.674C420.644 407.09 420.293 407.437 419.825 407.714C419.366 407.983 418.828 408.117 418.213 408.117C417.58 408.117 417.008 407.961 416.497 407.649C415.986 407.337 415.583 406.899 415.288 406.336C414.993 405.773 414.846 405.131 414.846 404.412ZM420.878 404.425C420.878 403.888 420.77 403.42 420.553 403.021C420.336 402.622 420.042 402.319 419.669 402.111C419.305 401.894 418.902 401.786 418.46 401.786C418.018 401.786 417.615 401.89 417.251 402.098C416.887 402.306 416.597 402.609 416.38 403.008C416.163 403.407 416.055 403.875 416.055 404.412C416.055 404.958 416.163 405.435 416.38 405.842C416.597 406.241 416.887 406.548 417.251 406.765C417.615 406.973 418.018 407.077 418.46 407.077C418.902 407.077 419.305 406.973 419.669 406.765C420.042 406.548 420.336 406.241 420.553 405.842C420.77 405.435 420.878 404.962 420.878 404.425ZM425.256 398.38V408H424.073V398.38H425.256ZM428.715 401.851V406.05C428.715 406.397 428.789 406.644 428.936 406.791C429.084 406.93 429.339 406.999 429.703 406.999H430.574V408H429.508C428.85 408 428.356 407.848 428.026 407.545C427.697 407.242 427.532 406.743 427.532 406.05V401.851H426.609V400.876H427.532V399.082H428.715V400.876H430.574V401.851H428.715ZM432.619 399.719C432.394 399.719 432.203 399.641 432.047 399.485C431.891 399.329 431.813 399.138 431.813 398.913C431.813 398.688 431.891 398.497 432.047 398.341C432.203 398.185 432.394 398.107 432.619 398.107C432.836 398.107 433.018 398.185 433.165 398.341C433.321 398.497 433.399 398.688 433.399 398.913C433.399 399.138 433.321 399.329 433.165 399.485C433.018 399.641 432.836 399.719 432.619 399.719ZM433.191 400.876V408H432.008V400.876H433.191ZM441.707 404.165C441.707 404.39 441.694 404.629 441.668 404.88H435.974C436.017 405.582 436.256 406.132 436.689 406.531C437.131 406.921 437.664 407.116 438.288 407.116C438.799 407.116 439.224 406.999 439.562 406.765C439.909 406.522 440.151 406.202 440.29 405.803H441.564C441.373 406.488 440.992 407.047 440.42 407.48C439.848 407.905 439.137 408.117 438.288 408.117C437.612 408.117 437.005 407.965 436.468 407.662C435.939 407.359 435.523 406.93 435.22 406.375C434.917 405.812 434.765 405.162 434.765 404.425C434.765 403.688 434.912 403.043 435.207 402.488C435.502 401.933 435.913 401.509 436.442 401.214C436.979 400.911 437.595 400.759 438.288 400.759C438.964 400.759 439.562 400.906 440.082 401.201C440.602 401.496 441.001 401.903 441.278 402.423C441.564 402.934 441.707 403.515 441.707 404.165ZM440.485 403.918C440.485 403.467 440.385 403.082 440.186 402.761C439.987 402.432 439.714 402.185 439.367 402.02C439.029 401.847 438.652 401.76 438.236 401.76C437.638 401.76 437.127 401.951 436.702 402.332C436.286 402.713 436.048 403.242 435.987 403.918H440.485ZM445.791 408.117C445.245 408.117 444.755 408.026 444.322 407.844C443.888 407.653 443.546 407.393 443.295 407.064C443.043 406.726 442.905 406.34 442.879 405.907H444.101C444.135 406.262 444.3 406.553 444.595 406.778C444.898 407.003 445.292 407.116 445.778 407.116C446.228 407.116 446.584 407.016 446.844 406.817C447.104 406.618 447.234 406.366 447.234 406.063C447.234 405.751 447.095 405.521 446.818 405.374C446.54 405.218 446.111 405.066 445.531 404.919C445.002 404.78 444.569 404.642 444.231 404.503C443.901 404.356 443.615 404.143 443.373 403.866C443.139 403.58 443.022 403.207 443.022 402.748C443.022 402.384 443.13 402.05 443.347 401.747C443.563 401.444 443.871 401.205 444.27 401.032C444.668 400.85 445.123 400.759 445.635 400.759C446.423 400.759 447.06 400.958 447.546 401.357C448.031 401.756 448.291 402.302 448.326 402.995H447.143C447.117 402.622 446.965 402.323 446.688 402.098C446.419 401.873 446.055 401.76 445.596 401.76C445.171 401.76 444.833 401.851 444.582 402.033C444.33 402.215 444.205 402.453 444.205 402.748C444.205 402.982 444.278 403.177 444.426 403.333C444.582 403.48 444.772 403.602 444.998 403.697C445.232 403.784 445.552 403.883 445.96 403.996C446.471 404.135 446.887 404.273 447.208 404.412C447.528 404.542 447.801 404.741 448.027 405.01C448.261 405.279 448.382 405.63 448.391 406.063C448.391 406.453 448.282 406.804 448.066 407.116C447.849 407.428 447.541 407.675 447.143 407.857C446.753 408.03 446.302 408.117 445.791 408.117ZM449.684 410.418V410.301C450.576 409.382 451.252 408.312 451.712 407.09C452.18 405.868 452.414 404.585 452.414 403.242C452.414 401.864 452.167 400.538 451.673 399.264C451.187 397.981 450.459 396.885 449.489 395.975V395.858H450.724C451.634 396.699 452.331 397.769 452.817 399.069C453.311 400.36 453.558 401.751 453.558 403.242C453.558 404.698 453.324 406.054 452.856 407.311C452.396 408.568 451.751 409.603 450.919 410.418H449.684Z" fill="#0A0A0A"/>
<defs>
<linearGradient id="paint0_linear_56_55" x1="406" y1="80" x2="406" y2="350" gradientUnits="userSpaceOnUse">
<stop stop-color="#FFC063"/>
<stop offset="0.505208" stop-color="#FF867D"/>
<stop offset="1" stop-color="#A48AF0"/>
</linearGradient>
<linearGradient id="paint1_linear_56_55" x1="277" y1="168" x2="277" y2="350" gradientUnits="userSpaceOnUse">
<stop stop-color="#FFC063"/>
<stop offset="0.505208" stop-color="#FF867D"/>
<stop offset="1" stop-color="#A48AF0"/>
</linearGradient>
<linearGradient id="paint2_linear_56_55" x1="147" y1="240" x2="147" y2="350" gradientUnits="userSpaceOnUse">
<stop stop-color="#FFC063"/>
<stop offset="0.505208" stop-color="#FF867D"/>
<stop offset="1" stop-color="#A48AF0"/>
</linearGradient>
</defs>
</svg>
